<?xml version="1.0" encoding="UTF-8"?>
<svg version="1.1" xmlns="http://www.w3.org/2000/svg" width="126" height="122">
<path d="M0 0 C8.29368809 0.49762129 16.57626114 3.28813057 24 7 C25.27875 7.0825 26.5575 7.165 27.875 7.25 C37.96757968 8.32091682 46.63883706 13.21330168 54 20 C54.76183594 20.69609375 55.52367188 21.3921875 56.30859375 22.109375 C66.31237986 32.16377048 71.1144968 45.25208444 71.1875 59.3125 C71.08737848 74.32526625 65.80479511 86.97995293 55.32421875 97.81640625 C41.29159213 111 41.29159213 111 34 111 C34.185625 111.639375 34.37125 112.27875 34.5625 112.9375 C34.706875 113.618125 34.85125 114.29875 35 115 C34.67 115.33 34.34 115.66 34 116 C28.71741961 115.52221247 24.02770516 114.17702722 19.0625 112.4375 C18.03672852 112.08655273 18.03672852 112.08655273 16.99023438 111.72851562 C15.32491499 111.15788171 13.66217507 110.57972902 12 110 C12 109.34 12 108.68 12 108 C11.113125 108.268125 10.22625 108.53625 9.3125 108.8125 C0.81839867 110.01855901 -8.43841869 104.24523898 -15.08203125 99.453125 C-15.71496094 98.97359375 -16.34789063 98.4940625 -17 98 C-18.03125 97.2575 -19.0625 96.515 -20.125 95.75 C-28.96196881 87.29724723 -35.91689617 74.872926 -36.23828125 62.4375 C-36.44464394 52.31172173 -36.44471041 43.32804356 -32 34 C-31.4740625 32.82824219 -31.4740625 32.82824219 -30.9375 31.6328125 C-25.4490607 20.61781974 -15.57731748 10.6833987 -3.9375 6.375 C-2.968125 5.92125 -1.99875 5.4675 -1 5 C0.05167527 2.42267086 0.05167527 2.42267086 0 0 Z M20 12 C19.01 13.485 19.01 13.485 18 15 C18.33 15.66 18.66 16.32 19 17 C19.23029956 19.37123246 19.41119942 21.74741943 19.5625 24.125 C19.64628906 25.40632813 19.73007813 26.68765625 19.81640625 28.0078125 C19.87699219 28.99523437 19.93757813 29.98265625 20 31 C22.10448938 30.85890014 24.2085877 30.71195825 26.3125 30.5625 C28.07013672 30.44068359 28.07013672 30.44068359 29.86328125 30.31640625 C33.02590958 30.1132629 33.02590958 30.1132629 36 29 C33.27427699 21.27711813 28.93669719 16.23408789 22 12 C21.34 12 20.68 12 20 12 Z M37 18 C38.19899698 21.0831351 39.47700477 24.06279492 41 27 C42.98 26.34 44.96 25.68 47 25 C43.87378374 21.60582235 41.43458973 19.3937282 37 18 Z M3 19 C2.34 20.093125 1.68 21.18625 1 22.3125 C0.62875 22.92738281 0.2575 23.54226562 -0.125 24.17578125 C-1.21623999 26.11361926 -1.21623999 26.11361926 -1 29 C0.56116819 29.33951619 2.12401338 29.67132544 3.6875 30 C4.99267578 30.2784375 4.99267578 30.2784375 6.32421875 30.5625 C8.95145318 30.99206242 11.34375689 31.14886126 14 31 C15.28612676 29.94021067 15.28612676 29.94021067 15.09765625 27.49609375 C15.08605469 26.48675781 15.07445313 25.47742188 15.0625 24.4375 C15.05347656 23.42558594 15.04445313 22.41367187 15.03515625 21.37109375 C15.02355469 20.58863281 15.01195313 19.80617188 15 19 C11.47618313 21.54604597 11.47618313 21.54604597 9 25 C8.34 25 7.68 25 7 25 C6.34 23.02 5.68 21.04 5 19 C4.34 19 3.68 19 3 19 Z M-7 23 C-7.66 24.32 -8.32 25.64 -9 27 C-8.01 26.67 -7.02 26.34 -6 26 C-5.67 25.01 -5.34 24.02 -5 23 C-5.66 23 -6.32 23 -7 23 Z M-15 30 C-21.04901271 36.88049213 -26 45.67201103 -26 55 C-21.71 55 -17.42 55 -13 55 C-12.30185065 51.75195755 -11.6161452 48.50212155 -10.9375 45.25 C-10.63875977 43.86941406 -10.63875977 43.86941406 -10.33398438 42.4609375 C-10.15029297 41.57148437 -9.96660156 40.68203125 -9.77734375 39.765625 C-9.60452881 38.94868164 -9.43171387 38.13173828 -9.25366211 37.29003906 C-8.98870116 34.89799506 -9.26687297 33.27474929 -10 31 C-11.65 30.67 -13.3 30.34 -15 30 Z M50 29 C48.02 29.99 46.04 30.98 44 32 C44.79646611 39.69917239 45.88453471 47.34047165 47 55 C51.62 55 56.24 55 61 55 C60.57182821 46.43656411 58.44830357 37.02864062 52.1875 30.75 C51.1046875 29.88375 51.1046875 29.88375 50 29 Z M11 49 C12 51 12 51 12 51 Z M10 51 C11 53 11 53 11 53 Z M9 53 C10 55 10 55 10 55 Z M26 53 C26 54.65 26 56.3 26 58 C26.33 58 26.66 58 27 58 C27 56.35 27 54.7 27 53 C26.67 53 26.34 53 26 53 Z M8 55 C9 59 9 59 9 59 Z M25 58 C26 61 26 61 26 61 Z M7 59 C7 60.65 7 62.3 7 64 C7.33 64 7.66 64 8 64 C8 62.35 8 60.7 8 59 C7.67 59 7.34 59 7 59 Z M-26 60 C-26.30076007 66.01520145 -25.56679753 70.24892912 -23.1875 75.75 C-22.92646484 76.39582031 -22.66542969 77.04164062 -22.39648438 77.70703125 C-20.9609914 81.15930323 -19.40956726 84.13456867 -17 87 C-14.69 86.34 -12.38 85.68 -10 85 C-8.95681262 81.76319429 -9.07712165 79.54451583 -9.77734375 76.234375 C-9.96103516 75.34492187 -10.14472656 74.45546875 -10.33398438 73.5390625 C-10.53314453 72.61867188 -10.73230469 71.69828125 -10.9375 70.75 C-11.23043945 69.34621094 -11.23043945 69.34621094 -11.52929688 67.9140625 C-12.01174352 65.6077322 -12.50484587 63.30363552 -13 61 C-17.29 60.67 -21.58 60.34 -26 60 Z M24 61 C25 63 25 63 25 63 Z M47 61 C46.4683102 64.06097121 45.94933396 67.12320149 45.4375 70.1875 C45.21030273 71.48397461 45.21030273 71.48397461 44.97851562 72.80664062 C43.96547656 78.92418186 43.96547656 78.92418186 45 85 C46.65 85.33 48.3 85.66 50 86 C55.7492593 78.06602217 59.38175375 70.70947751 61 61 C56.38 61 51.76 61 47 61 Z M21 71 C21.33 71.66 21.66 72.32 22 73 C22.99 72.67 23.98 72.34 25 72 C23.68 71.67 22.36 71.34 21 71 Z M3.0625 86 C2.29035156 86.185625 1.51820312 86.37125 0.72265625 86.5625 C0.15417969 86.706875 -0.41429687 86.85125 -1 87 C0.56623968 93.96106526 5.10844207 98.94378103 10.8125 103 C12.90228563 104.13858659 12.90228563 104.13858659 15 104 C16.27603607 100.17189179 15.86283987 96.76524893 15.5625 92.8125 C15.48418945 91.68811523 15.48418945 91.68811523 15.40429688 90.54101562 C15.27486216 88.69362918 15.13813482 86.84675629 15 85 C10.85143096 84.91875507 7.09563483 85.00722835 3.0625 86 Z M20 85 C20 88.96 20 92.92 20 97 C21.1446875 95.824375 21.1446875 95.824375 22.3125 94.625 C25 92 25 92 28 90 C28.66 92.31 29.32 94.62 30 97 C33.48331435 93.98112756 34.79157144 91.43090471 36 87 C30.42932723 85.40837921 25.78898419 84.79325056 20 85 Z M41 89 C40.34 90.65 39.68 92.3 39 94 C41.53673288 92.6446674 41.53673288 92.6446674 44 91 C44 90.34 44 89.68 44 89 C43.01 89 42.02 89 41 89 Z M-12 90 C-10.49776416 94.20626034 -7.71449966 95.73900021 -4 98 C-3.34 97.67 -2.68 97.34 -2 97 C-2.78281305 95.66144944 -3.57651877 94.32926356 -4.375 93 C-4.81585938 92.2575 -5.25671875 91.515 -5.7109375 90.75 C-6.13632812 90.1725 -6.56171875 89.595 -7 89 C-9.21081851 88.89459074 -9.21081851 88.89459074 -12 90 Z " fill="#60B4DE" transform="translate(53,3)"/>
<path d="M0 0 C7.70250298 0.46215018 14.99347759 2.81856069 22 6 C22.66 6.99 23.32 7.98 24 9 C22.48510638 12.78723404 22.48510638 12.78723404 20.21875 13.78125 C17.11109439 15.4882721 15.43913929 17.85638267 13.25 20.625 C12.05117187 22.12933594 12.05117187 22.12933594 10.828125 23.6640625 C10.22484375 24.43492188 9.6215625 25.20578125 9 26 C8.01 25.67 7.02 25.34 6 25 C5.505 22.03 5.505 22.03 5 19 C4.34 19 3.68 19 3 19 C2.505 20.485 2.505 20.485 2 22 C0.989375 22.0825 -0.02125 22.165 -1.0625 22.25 C-5.42536672 22.87199729 -8.36492409 24.52814838 -12 27 C-12.33 27.99 -12.66 28.98 -13 30 C-14.11375 31.0209375 -14.11375 31.0209375 -15.25 32.0625 C-21.58554899 38.12259034 -25.16418493 48.22822616 -25.48144531 56.81176758 C-25.56671769 66.58106455 -23.78143593 74.36928881 -19 83 C-17.67491507 84.34153102 -16.34351655 85.67692826 -15 87 C-15 87.99 -15 88.98 -15 90 C-14.01 90 -13.02 90 -12 90 C-10.89732491 91.13713369 -9.79756226 92.27720669 -8.7109375 93.4296875 C-3.132684 98.54945441 3.56543512 102.51308702 11 104 C10.67 105.65 10.34 107.3 10 109 C-1.16993885 109 -13.39753667 102.64059197 -21.3359375 94.89453125 C-33.69771588 80.82067558 -36.82330444 66.68037991 -36.18359375 48.52539062 C-35.80038647 43.25425212 -34.25659274 38.73587556 -32 34 C-31.4740625 32.82824219 -31.4740625 32.82824219 -30.9375 31.6328125 C-25.4490607 20.61781974 -15.57731748 10.6833987 -3.9375 6.375 C-2.968125 5.92125 -1.99875 5.4675 -1 5 C0.05167527 2.42267086 0.05167527 2.42267086 0 0 Z " fill="#C5232A" transform="translate(53,3)"/>
<path d="M0 0 C11.68153931 0.58407697 21.43247952 5.1010882 30 13 C30.76183594 13.69609375 31.52367187 14.3921875 32.30859375 15.109375 C42.31237986 25.16377048 47.1144968 38.25208444 47.1875 52.3125 C47.08737848 67.32526625 41.80479511 79.97995293 31.32421875 90.81640625 C17.29159213 104 17.29159213 104 10 104 C10.185625 104.639375 10.37125 105.27875 10.5625 105.9375 C10.706875 106.618125 10.85125 107.29875 11 108 C10.67 108.33 10.34 108.66 10 109 C2.38320931 108.23541745 -5.13958515 106.42190184 -12 103 C-13.96900854 100.06280495 -13.93866095 98.61900374 -14 95 C-12.35 95.66 -10.7 96.32 -9 97 C-8.67 95.35 -8.34 93.7 -8 92 C-5.525 91.505 -5.525 91.505 -3 91 C-2.9175 90.4225 -2.835 89.845 -2.75 89.25 C-1.78202213 86.3460664 -0.31305716 84.96259396 2 83 C2.66 83 3.32 83 4 83 C5.125 88.625 5.125 88.625 4 92 C10.61166245 90.62801471 14.7458919 89.19769091 18.6484375 83.5234375 C20.31471719 81.64526097 21.56079455 81.38404511 24 81 C23.67 80.34 23.34 79.68 23 79 C23.99 78.67 24.98 78.34 26 78 C32.66300223 69.64393982 37.72899743 57.71984744 37 47 C35.46947023 39.49270873 33.20321958 32.48606971 29.1484375 25.96484375 C28 24 28 24 27.25 21.515625 C25.52678472 18.04765425 22.88428887 16.65392642 19.625 14.8125 C19.0475 14.47025391 18.47 14.12800781 17.875 13.77539062 C14.97162678 12.06849883 12.0359352 10.45814622 9 9 C9 8.34 9 7.68 9 7 C6.03 6.34 3.06 5.68 0 5 C0 3.35 0 1.7 0 0 Z " fill="#166FB1" transform="translate(77,10)"/>
<path d="M0 0 C2.475 0.495 2.475 0.495 5 1 C4.34 1.66 3.68 2.32 3 3 C2.855625 4.051875 2.71125 5.10375 2.5625 6.1875 C1.23081476 15.21336665 -3.00357989 20.32146512 -10 26 C-21.89081886 34 -21.89081886 34 -26 34 C-25.814375 34.639375 -25.62875 35.27875 -25.4375 35.9375 C-25.293125 36.618125 -25.14875 37.29875 -25 38 C-25.33 38.33 -25.66 38.66 -26 39 C-33.61679069 38.23541745 -41.13958515 36.42190184 -48 33 C-49.96900854 30.06280495 -49.93866095 28.61900374 -50 25 C-47.525 25.99 -47.525 25.99 -45 27 C-44.67 25.35 -44.34 23.7 -44 22 C-42.35 21.67 -40.7 21.34 -39 21 C-38.9175 20.4225 -38.835 19.845 -38.75 19.25 C-37.78202213 16.3460664 -36.31305716 14.96259396 -34 13 C-33.34 13 -32.68 13 -32 13 C-30.875 18.625 -30.875 18.625 -32 22 C-22.80833178 19.33102905 -22.80833178 19.33102905 -15 14 C-13.82386109 13.33370112 -12.63527683 12.68906813 -11.4375 12.0625 C-8.12045026 10.24927541 -6.2861131 8.02093517 -4 5 C-3.01 4.67 -2.02 4.34 -1 4 C-0.26676204 1.98491642 -0.26676204 1.98491642 0 0 Z " fill="#1370B4" transform="translate(113,80)"/>
<path d="M0 0 C0.66 0.33 1.32 0.66 2 1 C1.65066406 1.83144531 1.30132812 2.66289063 0.94140625 3.51953125 C0.48636719 4.60621094 0.03132813 5.69289063 -0.4375 6.8125 C-0.88996094 7.89144531 -1.34242187 8.97039063 -1.80859375 10.08203125 C-5.88966402 20.07730827 -5.29872917 31.38722336 -1.25 41.3125 C0.66818832 45.79311665 2.56071017 48.61304719 6 52 C6 52.99 6 53.98 6 55 C6.99 55 7.98 55 9 55 C10.10267509 56.13713369 11.20243774 57.27720669 12.2890625 58.4296875 C17.867316 63.54945441 24.56543512 67.51308702 32 69 C31.67 70.65 31.34 72.3 31 74 C19.83006115 74 7.60246333 67.64059197 -0.3359375 59.89453125 C-10.18044078 48.68658737 -15.16738175 36.66366682 -15.25 21.875 C-15.270625 20.97523437 -15.29125 20.07546875 -15.3125 19.1484375 C-15.3499695 12.62874385 -14.19845115 7.1294675 -12 1 C-10.74819721 5.21919103 -11.32747579 8.96088565 -11.9375 13.25 C-12.03740234 13.99507812 -12.13730469 14.74015625 -12.24023438 15.5078125 C-12.48680156 17.33945442 -12.74250391 19.16986251 -13 21 C-11.02 20.67 -9.04 20.34 -7 20 C-6.9175 19.071875 -6.835 18.14375 -6.75 17.1875 C-5.92848188 11.37734285 -4.20548142 4.20548142 0 0 Z " fill="#C0272E" transform="translate(32,38)"/>
<path d="M0 0 C2.63079887 0.56331456 5.25271463 1.14933976 7.875 1.75 C8.99455078 1.98589844 8.99455078 1.98589844 10.13671875 2.2265625 C15.66252929 3.5208965 15.66252929 3.5208965 17.5078125 6.140625 C17.75144531 7.06101562 17.75144531 7.06101562 18 8 C15.48169253 11.12270126 14.2738451 11.94523098 10.25 12.75 C8.64125 12.87375 8.64125 12.87375 7 13 C7 14.98 7 16.96 7 19 C6.34 19 5.68 19 5 19 C4.505 16.525 4.505 16.525 4 14 C-0.72175374 15.31695172 -4.80440402 16.62281439 -8.6875 19.6875 C-11.81697501 22.1296604 -13.98155094 22.49005476 -18 22 C-18.66 23.98 -19.32 25.96 -20 28 C-20.99 27.67 -21.98 27.34 -23 27 C-23.8125 24.8125 -23.8125 24.8125 -24 22 C-21.625 19.3125 -21.625 19.3125 -19 17 C-18.67 16.34 -18.34 15.68 -18 15 C-17.01 14.67 -16.02 14.34 -15 14 C-13.31237149 12.3545622 -11.6459651 10.68711423 -10 9 C-9.01 8.34 -8.02 7.68 -7 7 C-6.34 6.01 -5.68 5.02 -5 4 C-5 4.66 -5 5.32 -5 6 C-2.9837767 5.28436734 -2.9837767 5.28436734 -1 4 C-0.34520448 1.96493574 -0.34520448 1.96493574 0 0 Z " fill="#C72028" transform="translate(55,5)"/>
<path d="M0 0 C2.09271564 1.71901642 2.3978759 2.79656923 2.75 5.4375 C0.44 6.0975 -1.87 6.7575 -4.25 7.4375 C-3.62497007 13.49029641 -3.62497007 13.49029641 -2.6875 19.5 C-2.13730431 23.19417106 -2.18562928 26.70399844 -2.25 30.4375 C2.7 30.1075 7.65 29.7775 12.75 29.4375 C12.75 31.7475 12.75 34.0575 12.75 36.4375 C7.8 36.4375 2.85 36.4375 -2.25 36.4375 C-2.20875 37.530625 -2.1675 38.62375 -2.125 39.75 C-2.10888574 44.27005065 -2.9040379 48.5057398 -3.8125 52.921875 C-4.36422745 55.66874366 -4.36422745 55.66874366 -4.25 59.4375 C-3.59 59.7675 -2.93 60.0975 -2.25 60.4375 C-2.25 61.0975 -2.25 61.7575 -2.25 62.4375 C-1.59 62.7675 -0.93 63.0975 -0.25 63.4375 C-3.25 65.4375 -3.25 65.4375 -5.9375 65.0625 C-7.0821875 64.753125 -7.0821875 64.753125 -8.25 64.4375 C-8.58 66.7475 -8.91 69.0575 -9.25 71.4375 C-10.49663331 71.94583591 -11.74749387 72.44381145 -13 72.9375 C-13.69609375 73.2159375 -14.3921875 73.494375 -15.109375 73.78125 C-17.25 74.4375 -17.25 74.4375 -21.25 74.4375 C-21.25 73.4475 -21.25 72.4575 -21.25 71.4375 C-20.26 71.4375 -19.27 71.4375 -18.25 71.4375 C-16.6 68.4675 -14.95 65.4975 -13.25 62.4375 C-18.53 61.7775 -23.81 61.1175 -29.25 60.4375 C-29.25 60.1075 -29.25 59.7775 -29.25 59.4375 C-23.56982564 59.257177 -18.77129805 59.57090874 -13.29296875 61.09765625 C-10.9807421 61.48229051 -9.46318214 61.14870235 -7.25 60.4375 C-7.15912109 59.51130859 -7.15912109 59.51130859 -7.06640625 58.56640625 C-6.89131882 56.7966764 -6.71410693 55.02715588 -6.53515625 53.2578125 C-6.35141234 51.44050973 -6.17143298 49.62282043 -5.99609375 47.8046875 C-5.36258945 41.55008945 -5.36258945 41.55008945 -4.25 40.4375 C-2.94250001 33.90000004 -3.75664407 28.86749115 -5.25 22.4375 C-8.35854484 7.66669635 -8.35854484 7.66669635 -7.25 2.4375 C-4.69447787 -0.04703541 -3.51356403 -0.87839101 0 0 Z " fill="#74B1D0" transform="translate(102.25,27.5625)"/>
<path d="M0 0 C0.33 0.66 0.66 1.32 1 2 C1.66 2 2.32 2 3 2 C5.84984298 6.65474354 7.7023817 10.70139194 9 16 C9.33 16 9.66 16 10 16 C10.96638658 20.04961997 11.13396116 23.84202407 11.125 28 C11.12886719 29.794375 11.12886719 29.794375 11.1328125 31.625 C11.01757938 34.55327693 10.67823563 37.15786976 10 40 C11.98 39.505 11.98 39.505 14 39 C14.144375 38.195625 14.28875 37.39125 14.4375 36.5625 C15 34 15 34 16 33 C16.23192865 31.48530552 16.41215238 29.96245438 16.5625 28.4375 C16.68818359 27.19806641 16.68818359 27.19806641 16.81640625 25.93359375 C16.90728516 24.97646484 16.90728516 24.97646484 17 24 C17.66 24 18.32 24 19 24 C19.35806134 39.09825311 17.02932163 48.78713073 10 62 C8.99417793 58.9825338 9.00973379 57.89459413 9.5 54.875 C9.665 53.59625 9.83 52.3175 10 51 C9.505 50.505 9.505 50.505 9 50 C8.773125 50.598125 8.54625 51.19625 8.3125 51.8125 C6.64100363 54.59832728 4.7943596 55.37537232 2 57 C1.195625 57.804375 0.39125 58.60875 -0.4375 59.4375 C-4.05493714 63.05493714 -7.82063127 66.20317404 -13 67 C-8.56923077 61.21538462 -8.56923077 61.21538462 -5.6875 60.125 C-5.130625 60.08375 -4.57375 60.0425 -4 60 C-4.33 59.34 -4.66 58.68 -5 58 C-3.515 57.505 -3.515 57.505 -2 57 C4.66300223 48.64393982 9.72899743 36.71984744 9 26 C7.44571362 18.37618191 5.13196491 11.3524628 0.953125 4.76953125 C0 3 0 3 0 0 Z " fill="#1971B1" transform="translate(105,31)"/>
<path d="M0 0 C7.70250298 0.46215018 14.99347759 2.81856069 22 6 C22.66 6.99 23.32 7.98 24 9 C22.48510638 12.78723404 22.48510638 12.78723404 20.21875 13.78125 C17.11109439 15.4882721 15.43913929 17.85638267 13.25 20.625 C12.45078125 21.62789062 11.6515625 22.63078125 10.828125 23.6640625 C10.22484375 24.43492188 9.6215625 25.20578125 9 26 C8.01 25.67 7.02 25.34 6 25 C5.67 23.02 5.34 21.04 5 19 C4.34 19 3.68 19 3 19 C2.67 19.99 2.34 20.98 2 22 C0.989375 22.0825 -0.02125 22.165 -1.0625 22.25 C-5.42536672 22.87199729 -8.36492409 24.52814838 -12 27 C-12.33 27.99 -12.66 28.98 -13 30 C-15.5625 31.6875 -15.5625 31.6875 -18 33 C-17.125 26.25 -17.125 26.25 -16 24 C-14.344284 23.56072841 -12.68778629 23.12417791 -11.02734375 22.703125 C-8.73317247 21.90745866 -7.00673494 20.79879388 -5 19.4375 C-1.26156668 16.95494662 1.54603018 16.27837311 6 16 C6.33 17.65 6.66 19.3 7 21 C7.66 21 8.32 21 9 21 C9 19.02 9 17.04 9 15 C12.465 14.505 12.465 14.505 16 14 C16.33 13.01 16.66 12.02 17 11 C17.66 10.67 18.32 10.34 19 10 C18.505 8.515 18.505 8.515 18 7 C15.29876276 5.95880649 12.71185565 5.09671155 9.9375 4.3125 C9.17888672 4.08755859 8.42027344 3.86261719 7.63867188 3.63085938 C5.76233696 3.0762195 3.88155145 2.53667702 2 2 C1.67 3.65 1.34 5.3 1 7 C-0.32 7.33 -1.64 7.66 -3 8 C-3 7.34 -3 6.68 -3 6 C-2.34 5.67 -1.68 5.34 -1 5 C-0.34444881 2.47266765 -0.34444881 2.47266765 0 0 Z " fill="#BD2B35" transform="translate(53,3)"/>
<path d="M0 0 C-0.52268466 2.76276177 -1.10869587 5.3260876 -2 8 C1.3 8.33 4.6 8.66 8 9 C8 9.33 8 9.66 8 10 C6.329375 10.2165625 6.329375 10.2165625 4.625 10.4375 C1.17857953 10.78372035 1.17857953 10.78372035 -1 12 C-1 11.34 -1 10.68 -1 10 C-2.1446875 10.4640625 -2.1446875 10.4640625 -3.3125 10.9375 C-5.18789677 11.67893593 -7.08684652 12.36228217 -9 13 C-9.12375 14.19625 -9.2475 15.3925 -9.375 16.625 C-9.98000921 22.12269243 -10.78911857 27.58768554 -11.59765625 33.05859375 C-12.04517473 35.83545864 -12.04517473 35.83545864 -12 38 C-12 40 -12 42 -12 44 C-12.66 44 -13.32 44 -14 44 C-14 42.68 -14 41.36 -14 40 C-14.60328125 40.01160156 -15.2065625 40.02320313 -15.828125 40.03515625 C-17.02695312 40.04869141 -17.02695312 40.04869141 -18.25 40.0625 C-19.03890625 40.07410156 -19.8278125 40.08570313 -20.640625 40.09765625 C-22.90691002 40.00385306 -24.8288895 39.63241063 -27 39 C-27 37.35 -27 35.7 -27 34 C-22.71 34 -18.42 34 -14 34 C-13.87625 32.246875 -13.7525 30.49375 -13.625 28.6875 C-13.13388358 22.7015738 -12.19270487 16.88246671 -11 11 C-11.99 10.67 -12.98 10.34 -14 10 C-13.67 8.35 -13.34 6.7 -13 5 C-12.01 4.67 -11.02 4.34 -10 4 C-10 4.66 -10 5.32 -10 6 C-9.52949219 5.566875 -9.05898438 5.13375 -8.57421875 4.6875 C-7.95160156 4.130625 -7.32898438 3.57375 -6.6875 3 C-5.76517578 2.1646875 -5.76517578 2.1646875 -4.82421875 1.3125 C-3 0 -3 0 0 0 Z " fill="#7BB4CF" transform="translate(54,24)"/>
<path d="M0 0 C14.48289741 0.72414487 25.09327776 7.61676238 34.8125 17.9375 C38.89440399 22.61884443 43 27.52536544 43 34 C42.34 34 41.68 34 41 34 C40.01836578 32.06374902 39.03977546 30.12595461 38.0625 28.1875 C37.51722656 27.10855469 36.97195312 26.02960937 36.41015625 24.91796875 C35 22 35 22 34 19 C33.01 19 32.02 19 31 19 C30.566875 18.2575 30.13375 17.515 29.6875 16.75 C26.75299798 11.96784855 22.17475158 9.82638291 17 8 C20.81438599 12.66906555 20.81438599 12.66906555 25 17 C21.86842674 16.37787942 19.65960336 15.31305924 17 13.5625 C14.39563118 11.85846962 11.80732083 10.34726335 9 9 C9 8.34 9 7.68 9 7 C4.545 6.01 4.545 6.01 0 5 C0 3.35 0 1.7 0 0 Z " fill="#2F72A8" transform="translate(77,10)"/>
<path d="M0 0 C1.87351592 2.81027388 2.4205796 4.23868658 3.0625 7.4375 C3.74775199 10.79356157 3.74775199 10.79356157 4.5859375 14.11328125 C5.13440866 16.612447 4.6137645 18.54494201 4 21 C6.31 21 8.62 21 11 21 C11.29132812 21.56847656 11.58265625 22.13695313 11.8828125 22.72265625 C14.74457623 28.11321119 17.88074124 32.49755438 22 37 C19.00155595 37.43879669 16.83158324 37.49894994 14.18359375 35.91015625 C9.94443132 32.45839764 7.43373471 28.86746941 5 24 C2.36 24 -0.28 24 -3 24 C-3 22.68 -3 21.36 -3 20 C-1.35 19.34 0.3 18.68 2 18 C1.855625 17.28714844 1.71125 16.57429688 1.5625 15.83984375 C0.5202768 10.46226157 -0.2433952 5.47639208 0 0 Z " fill="#7BB0CA" transform="translate(41,69)"/>
<path d="M0 0 C0.66 0.33 1.32 0.66 2 1 C1.65066406 1.83144531 1.30132812 2.66289063 0.94140625 3.51953125 C0.48636719 4.60621094 0.03132813 5.69289063 -0.4375 6.8125 C-0.88996094 7.89144531 -1.34242187 8.97039063 -1.80859375 10.08203125 C-5.88966402 20.07730827 -5.29872917 31.38722336 -1.25 41.3125 C0.66818832 45.79311665 2.56071017 48.61304719 6 52 C6 52.99 6 53.98 6 55 C6.99 55 7.98 55 9 55 C11.4375 57.25 11.4375 57.25 14 60 C14.763125 60.763125 15.52625 61.52625 16.3125 62.3125 C16.869375 62.869375 17.42625 63.42625 18 64 C14.08217257 63.47038035 11.97663531 62.5328821 9.0625 59.875 C8.43472656 59.31554687 7.80695312 58.75609375 7.16015625 58.1796875 C1.7302687 52.70070512 -2.00980581 47.98565831 -4.375 40.5625 C-4.62612549 39.78044189 -4.87725098 38.99838379 -5.13598633 38.19262695 C-8.89583428 25.55050503 -8.18846765 13.88935906 -2 2 C-1.34 1.34 -0.68 0.68 0 0 Z " fill="#C86A6F" transform="translate(32,38)"/>
<path d="M0 0 C0.33 0.66 0.66 1.32 1 2 C1.66 2 2.32 2 3 2 C5.84984298 6.65474354 7.7023817 10.70139194 9 16 C9.33 16 9.66 16 10 16 C12.87810558 28.84443812 10.71575563 40.32181218 5 52 C3.17275021 54.79564836 1.43613367 56.67213894 -1 59 C-1.7734375 60.11375 -1.7734375 60.11375 -2.5625 61.25 C-5.30369399 64.58710572 -8.80615205 66.22336149 -13 67 C-8.56923077 61.21538462 -8.56923077 61.21538462 -5.6875 60.125 C-5.130625 60.08375 -4.57375 60.0425 -4 60 C-4.33 59.34 -4.66 58.68 -5 58 C-3.515 57.505 -3.515 57.505 -2 57 C4.66300223 48.64393982 9.72899743 36.71984744 9 26 C7.44571362 18.37618191 5.13196491 11.3524628 0.953125 4.76953125 C0 3 0 3 0 0 Z " fill="#4888B1" transform="translate(105,31)"/>
<path d="M0 0 C0.33 1.98 0.66 3.96 1 6 C0.071875 6.391875 -0.85625 6.78375 -1.8125 7.1875 C-5.29969363 9.17041402 -6.17710601 10.52782096 -8 14 C-8.556875 14.515625 -9.11375 15.03125 -9.6875 15.5625 C-11.44951291 17.16789842 -11.44951291 17.16789842 -11 21 C-12.65 20.67 -14.3 20.34 -16 20 C-16.66 17.36 -17.32 14.72 -18 12 C-15.525 12.99 -15.525 12.99 -13 14 C-12.67 12.35 -12.34 10.7 -12 9 C-10.35 8.67 -8.7 8.34 -7 8 C-6.9175 7.4225 -6.835 6.845 -6.75 6.25 C-5.66186883 2.98560649 -3.65852651 0 0 0 Z " fill="#1A6DAB" transform="translate(81,93)"/>
<path d="M0 0 C1.2062 4.10108001 0.68164634 7.64768332 0.0625 11.8125 C-2.02590679 26.16187571 -0.19808708 38.73415979 8 51 C10.35426499 53.77122275 10.35426499 53.77122275 13 56 C14.27749724 57.2641343 15.54803026 58.53533478 16.8125 59.8125 C17.41707031 60.41707031 18.02164063 61.02164063 18.64453125 61.64453125 C19.09183594 62.09183594 19.53914063 62.53914063 20 63 C15.98464279 63 14.79554175 61.56907567 11.8984375 58.953125 C1.56533209 48.32235812 -3.16876887 35.4153721 -3.25 20.875 C-3.270625 19.97523437 -3.29125 19.07546875 -3.3125 18.1484375 C-3.3499695 11.62874385 -2.19845115 6.1294675 0 0 Z " fill="#BE5058" transform="translate(20,39)"/>
<path d="M0 0 C1.65 0.33 3.3 0.66 5 1 C4.34 1.66 3.68 2.32 3 3 C2.855625 4.11375 2.71125 5.2275 2.5625 6.375 C1.99000461 10.0644147 1.58500838 11.41499162 -1 14 C-3.67159488 15.80332654 -5.93731607 16.97910536 -9 18 C-9.8125 14.8125 -9.8125 14.8125 -10 11 C-7.80723527 8.18073107 -5.98138727 6.46343288 -2.75 4.9375 C-0.77905978 4.1346633 -0.77905978 4.1346633 -0.25 1.875 C-0.1675 1.25625 -0.085 0.6375 0 0 Z " fill="#0F6EB6" transform="translate(113,80)"/>
<path d="M0 0 C-0.52268466 2.76276177 -1.10869587 5.3260876 -2 8 C1.3 8.33 4.6 8.66 8 9 C8 9.33 8 9.66 8 10 C6.329375 10.2165625 6.329375 10.2165625 4.625 10.4375 C1.17857953 10.78372035 1.17857953 10.78372035 -1 12 C-1 11.34 -1 10.68 -1 10 C-4.54518884 11.39759905 -4.54518884 11.39759905 -8 13 C-8.33 12.01 -8.66 11.02 -9 10 C-9.99 10.495 -9.99 10.495 -11 11 C-11.99 10.67 -12.98 10.34 -14 10 C-13.67 8.35 -13.34 6.7 -13 5 C-12.01 4.67 -11.02 4.34 -10 4 C-10 4.66 -10 5.32 -10 6 C-9.52949219 5.566875 -9.05898438 5.13375 -8.57421875 4.6875 C-7.64029297 3.8521875 -7.64029297 3.8521875 -6.6875 3 C-6.07261719 2.443125 -5.45773438 1.88625 -4.82421875 1.3125 C-3 0 -3 0 0 0 Z " fill="#6EAFCE" transform="translate(54,24)"/>
<path d="M0 0 C2 2 2 2 2.1953125 5.2578125 C2.16050781 7.17207031 2.16050781 7.17207031 2.125 9.125 C2.10695313 10.40632813 2.08890625 11.68765625 2.0703125 13.0078125 C2.04710938 13.99523438 2.02390625 14.98265625 2 16 C8.435 15.505 8.435 15.505 15 15 C14.67 15.99 14.34 16.98 14 18 C11.69 17.67 9.38 17.34 7 17 C6.67 17.66 6.34 18.32 6 19 C2.7 18.01 -0.6 17.02 -4 16 C-3.91291962 13.89505699 -3.80474307 11.79097858 -3.6875 9.6875 C-3.62949219 8.51574219 -3.57148437 7.34398437 -3.51171875 6.13671875 C-2.98395232 2.9016314 -2.57619276 1.91315119 0 0 Z " fill="#7CC0DE" transform="translate(71,18)"/>
<path d="M0 0 C-1.33804303 4.01412909 -3.52415367 4.73005954 -7 7 C-7.99 8.485 -7.99 8.485 -9 10 C-9.99 10 -10.98 10 -12 10 C-12.226875 10.763125 -12.45375 11.52625 -12.6875 12.3125 C-14.29949457 15.61325079 -15.82534664 16.26149935 -19 18 C-22.72777405 21.1629598 -24.70937822 24.74598813 -27 29 C-27.33 28.34 -27.66 27.68 -28 27 C-24.43972201 17.50592536 -11.25327681 0 0 0 Z " fill="#D05C63" transform="translate(49,10)"/>
<path d="M0 0 C0.66 0.268125 1.32 0.53625 2 0.8125 C5.64939067 2.25705047 9.32245433 3.62871178 13 5 C12.67 6.65 12.34 8.3 12 10 C3.12308677 9.84694977 -3.37684116 6.15315766 -11 2 C-9 1 -9 1 -7.16015625 1.55859375 C-6.46792969 1.84863281 -5.77570312 2.13867188 -5.0625 2.4375 C-2.37644364 3.55710854 -0.97668615 4 2 4 C1.34 2.68 0.68 1.36 0 0 Z " fill="#AF4656" transform="translate(51,102)"/>
<path d="M0 0 C0.33 0.99 0.66 1.98 1 3 C2.3921875 3.2165625 2.3921875 3.2165625 3.8125 3.4375 C9.6459724 4.46693631 11.39093927 6.34621116 15 11 C16.35439668 13.70879335 16.06501451 16.00933268 16 19 C15.01 19.33 14.02 19.66 13 20 C12.64808594 19.34773438 12.29617187 18.69546875 11.93359375 18.0234375 C8.96591008 12.76994003 6.27827724 8.85003979 1.3203125 5.3515625 C0 4 0 4 0 0 Z " fill="#72AFD1" transform="translate(76,12)"/>
<path d="M0 0 C7.70250298 0.46215018 14.99347759 2.81856069 22 6 C22.99 7.485 22.99 7.485 24 9 C22.9024777 11.99324263 22.32317108 12.84610901 19.375 14.25 C18.59125 14.4975 17.8075 14.745 17 15 C17.66 12.69 18.32 10.38 19 8 C13.37661751 5.85289032 7.72210596 3.86763181 2 2 C1.67 3.65 1.34 5.3 1 7 C-0.32 7.33 -1.64 7.66 -3 8 C-3 7.34 -3 6.68 -3 6 C-2.34 5.67 -1.68 5.34 -1 5 C-0.34444881 2.47266765 -0.34444881 2.47266765 0 0 Z " fill="#B7474C" transform="translate(53,3)"/>
<path d="M0 0 C2.64 0.33 5.28 0.66 8 1 C7.01 1.33 6.02 1.66 5 2 C4.67 4.31 4.34 6.62 4 9 C2.75336669 9.50833591 1.50250613 10.00631145 0.25 10.5 C-0.44609375 10.7784375 -1.1421875 11.056875 -1.859375 11.34375 C-4 12 -4 12 -8 12 C-8 11.01 -8 10.02 -8 9 C-7.01 9 -6.02 9 -5 9 C-3.35 6.03 -1.7 3.06 0 0 Z " fill="#66A8CA" transform="translate(89,90)"/>
<path d="M0 0 C0 1.32 0 2.64 0 4 C-1.010625 4.0825 -2.02125 4.165 -3.0625 4.25 C-7.42536672 4.87199729 -10.36492409 6.52814838 -14 9 C-14.33 9.99 -14.66 10.98 -15 12 C-17.5625 13.6875 -17.5625 13.6875 -20 15 C-19.125 8.25 -19.125 8.25 -18 6 C-16.948125 5.71125 -15.89625 5.4225 -14.8125 5.125 C-10.94375042 4.19427584 -10.94375042 4.19427584 -7.875 1.875 C-4.84385935 -0.10183086 -3.52393393 -0.41458046 0 0 Z " fill="#985868" transform="translate(55,21)"/>
<path d="M0 0 C1.65 0 3.3 0 5 0 C5.33 4.29 5.66 8.58 6 13 C4.02 13.66 2.04 14.32 0 15 C0 10.05 0 5.1 0 0 Z " fill="#65A5C4" transform="translate(68,88)"/>
<path d="M0 0 C9.60634685 4.80317343 16.4164694 12.27783995 21 22 C21.66015625 24.80078125 21.66015625 24.80078125 22 27 C21.34 27 20.68 27 20 27 C19.01836578 25.06374902 18.03977546 23.12595461 17.0625 21.1875 C16.51722656 20.10855469 15.97195312 19.02960937 15.41015625 17.91796875 C14 15 14 15 13 12 C12.01 12 11.02 12 10 12 C9.5875 11.278125 9.175 10.55625 8.75 9.8125 C6.72080132 6.55128784 4.61711311 5.14172614 1.42578125 3.11328125 C0.95527344 2.74589844 0.48476562 2.37851562 0 2 C0 1.34 0 0.68 0 0 Z " fill="#407DA8" transform="translate(98,17)"/>
<path d="M0 0 C3.96 0 7.92 0 12 0 C13.35439668 2.70879335 13.06501451 5.00933268 13 8 C12.34 8 11.68 8 11 8 C11 6.68 11 5.36 11 4 C8.03 4 5.06 4 2 4 C1.34 2.68 0.68 1.36 0 0 Z " fill="#6DB4D0" transform="translate(29,60)"/>
<path d="M0 0 C-3.75 3 -3.75 3 -6 3 C-5.814375 3.639375 -5.62875 4.27875 -5.4375 4.9375 C-5.293125 5.618125 -5.14875 6.29875 -5 7 C-5.33 7.33 -5.66 7.66 -6 8 C-11.65178116 7.52901824 -16.68255183 5.91717519 -22 4 C-18.87819599 3.03338637 -16.47916205 3.01011091 -13.25 3.4375 C-12.05117187 3.59025391 -12.05117187 3.59025391 -10.828125 3.74609375 C-10.22484375 3.82988281 -9.6215625 3.91367188 -9 4 C-8.67 3.01 -8.34 2.02 -8 1 C-5.07175348 0.02391783 -3.04386724 -0.08226668 0 0 Z " fill="#36739F" transform="translate(93,111)"/>
<path d="M0 0 C2.09271564 1.71901642 2.3978759 2.79656923 2.75 5.4375 C1.63625 5.72625 0.5225 6.015 -0.625 6.3125 C-4.25291092 7.12991329 -4.25291092 7.12991329 -6.25 9.4375 C-6.58 7.1275 -6.91 4.8175 -7.25 2.4375 C-2.87857143 -0.71964286 -2.87857143 -0.71964286 0 0 Z " fill="#63AAC9" transform="translate(102.25,27.5625)"/>
<path d="M0 0 C0.99 0.33 1.98 0.66 3 1 C3.94921875 2.92578125 3.94921875 2.92578125 4.6875 5.3125 C4.93886719 6.09238281 5.19023437 6.87226562 5.44921875 7.67578125 C6 10 6 10 6 14 C5.01 14 4.02 14 3 14 C0.9945196 9.64026 -0.53945369 5.83573624 -1 1 C-0.67 0.67 -0.34 0.34 0 0 Z " fill="#C71F26" transform="translate(21,68)"/>
<path d="M0 0 C0 3.7683183 -0.83377489 4.2661994 -3.4375 6.875 C-7.53363981 10.84657026 -11.88068411 13.5351442 -17 16 C-17 15.01 -17 14.02 -17 13 C-10.25 9 -10.25 9 -8 9 C-7.90847656 8.39671875 -7.81695312 7.7934375 -7.72265625 7.171875 C-6.82279508 4.46742737 -5.79297981 3.7917686 -3.4375 2.25 C-2.79683594 1.82203125 -2.15617187 1.3940625 -1.49609375 0.953125 C-1.00238281 0.63859375 -0.50867188 0.3240625 0 0 Z " fill="#2E72A0" transform="translate(111,95)"/>
<path d="M0 0 C2.31 0.33 4.62 0.66 7 1 C7 1.66 7 2.32 7 3 C7.66 3 8.32 3 9 3 C9.28571429 11.57142857 9.28571429 11.57142857 7 15 C7 14.34 7 13.68 7 13 C6.34 12.67 5.68 12.34 5 12 C5.33 11.67 5.66 11.34 6 11 C6.07148199 9.64756083 6.08399454 8.29165633 6.0625 6.9375 C6.041875 5.638125 6.02125 4.33875 6 3 C3.36 3 0.72 3 -2 3 C-1.34 2.01 -0.68 1.02 0 0 Z " fill="#5AABCC" transform="translate(71,45)"/>
<path d="M0 0 C3.41459553 1.13819851 4.3324158 2.24005518 6.625 4.9375 C7.23601563 5.64777344 7.84703125 6.35804687 8.4765625 7.08984375 C10 9 10 9 11 11 C8.25 11.3125 8.25 11.3125 5 11 C1.39683978 7.68898791 0.44729476 4.8084187 0 0 Z " fill="#79B2CD" transform="translate(52,95)"/>
<path d="M0 0 C0.66 0 1.32 0 2 0 C2.19676277 8.29683005 2.25943749 15.95075394 0 24 C-0.33 24 -0.66 24 -1 24 C-1.16677223 15.95787245 -0.6466598 8.01396246 0 0 Z " fill="#3C7AA2" transform="translate(122,55)"/>
<path d="M0 0 C2.35302007 2.35302007 2.39392208 3.27435295 2.75 6.5 C2.84796875 7.2940625 2.9459375 8.088125 3.046875 8.90625 C3 11 3 11 1 13 C0.67 12.01 0.34 11.02 0 10 C-0.66 10 -1.32 10 -2 10 C-2.66 10.99 -3.32 11.98 -4 13 C-4.33 10.36 -4.66 7.72 -5 5 C-4.01 5 -3.02 5 -2 5 C-2 5.99 -2 6.98 -2 8 C-1.34 8 -0.68 8 0 8 C0 5.36 0 2.72 0 0 Z " fill="#256FA5" transform="translate(120,44)"/>
<path d="M0 0 C0.99 0.33 1.98 0.66 3 1 C-0.40671141 5.79463087 -0.40671141 5.79463087 -3.4375 6.84375 C-6.74416207 8.33578045 -7.57991557 9.98217243 -9.3125 13.125 C-9.82425781 14.03507812 -10.33601563 14.94515625 -10.86328125 15.8828125 C-11.23839844 16.58148438 -11.61351563 17.28015625 -12 18 C-12.33 17.34 -12.66 16.68 -13 16 C-12.07421875 13.94140625 -12.07421875 13.94140625 -10.6875 11.5625 C-10.23761719 10.78003906 -9.78773437 9.99757813 -9.32421875 9.19140625 C-6.90500173 5.18792322 -5.05776585 3.28899612 -1 1 C-0.67 0.67 -0.34 0.34 0 0 Z " fill="#C7474D" transform="translate(34,21)"/>
<path d="M0 0 C2.86207152 1.28299758 5.0245088 2.530636 7 5 C7 5.99 7 6.98 7 8 C7.99 8 8.98 8 10 8 C12.4375 10.25 12.4375 10.25 15 13 C15.763125 13.763125 16.52625 14.52625 17.3125 15.3125 C17.869375 15.869375 18.42625 16.42625 19 17 C11.0448554 15.92460784 6.04287247 9.305147 1.03125 3.48046875 C0 2 0 2 0 0 Z " fill="#B1616A" transform="translate(31,85)"/>
<path d="M0 0 C0.33 0 0.66 0 1 0 C0.88590318 2.10478604 0.75834639 4.20884577 0.625 6.3125 C0.55539063 7.48425781 0.48578125 8.65601563 0.4140625 9.86328125 C0 13 0 13 -2 16 C-2.66 15.34 -3.32 14.68 -4 14 C-3.828125 11.50390625 -3.828125 11.50390625 -3.25 8.5625 C-3.06953125 7.59441406 -2.8890625 6.62632813 -2.703125 5.62890625 C-2 3 -2 3 0 0 Z " fill="#68AFCE" transform="translate(64,55)"/>
<path d="M0 0 C6.48858348 1.24780452 11.16475456 4.74037902 16 9 C15.01 9.33 14.02 9.66 13 10 C10.87890625 8.85546875 10.87890625 8.85546875 8.5625 7.1875 C5.77796752 5.20393287 3.10113705 3.44813917 0 2 C0 1.34 0 0.68 0 0 Z " fill="#3C81AE" transform="translate(86,17)"/>
<path d="M0 0 C0.33 0.99 0.66 1.98 1 3 C2.3921875 3.2165625 2.3921875 3.2165625 3.8125 3.4375 C7 4 7 4 10 5 C11.1875 7.5625 11.1875 7.5625 12 10 C8.62440315 9.41800054 7.37247717 8.37247717 5 6 C2.40084462 4.80972016 2.40084462 4.80972016 0 4 C0 2.68 0 1.36 0 0 Z " fill="#68ABD2" transform="translate(76,12)"/>
<path d="M0 0 C1.65 0 3.3 0 5 0 C4.07506212 3.78383679 3.60628829 5.56693694 0.375 7.875 C-0.40875 8.24625 -1.1925 8.6175 -2 9 C-1.125 2.25 -1.125 2.25 0 0 Z " fill="#AC434F" transform="translate(37,27)"/>
<path d="M0 0 C2.475 0.99 2.475 0.99 5 2 C5.33 1.34 5.66 0.68 6 0 C5.79375 0.928125 5.5875 1.85625 5.375 2.8125 C4.63307034 6.15173402 4.63307034 6.15173402 7 9 C5.35 8.67 3.7 8.34 2 8 C1.34 5.36 0.68 2.72 0 0 Z " fill="#647794" transform="translate(63,105)"/>
<path d="M0 0 C2 2 2 2 2.1953125 5.2578125 C2.16050781 7.17207031 2.16050781 7.17207031 2.125 9.125 C2.10695313 10.40632813 2.08890625 11.68765625 2.0703125 13.0078125 C2.04710938 13.99523438 2.02390625 14.98265625 2 16 C1.67 16 1.34 16 1 16 C0.67 12.7 0.34 9.4 0 6 C-0.99 6.33 -1.98 6.66 -3 7 C-2.25 2.25 -2.25 2.25 0 0 Z " fill="#7D95AC" transform="translate(71,18)"/>
<path d="M0 0 C1.31157516 2.62315032 0.89649988 4.23033436 0.5625 7.125 C0.46066406 8.03507812 0.35882813 8.94515625 0.25390625 9.8828125 C0.17011719 10.58148438 0.08632812 11.28015625 0 12 C-1.32 11.34 -2.64 10.68 -4 10 C-3.51171875 3.9453125 -3.51171875 3.9453125 -3 2 C-2.01 1.34 -1.02 0.68 0 0 Z " fill="#73AECC" transform="translate(71,23)"/>
<path d="M0 0 C1.65 0.33 3.3 0.66 5 1 C4.01 1.33 3.02 1.66 2 2 C0.83333333 3.91666667 0.83333333 3.91666667 0 6 C-0.33 6.66 -0.66 7.32 -1 8 C-4.0625 8.625 -4.0625 8.625 -7 9 C-6.67 7.35 -6.34 5.7 -6 4 C-5.67 4.66 -5.34 5.32 -5 6 C-2.9837767 5.28436734 -2.9837767 5.28436734 -1 4 C-0.19471111 1.94999129 -0.19471111 1.94999129 0 0 Z " fill="#C2262E" transform="translate(55,5)"/>
<path d="M0 0 C0 3.77910478 -0.99703962 4.46106101 -3.5 7.1875 C-4.1496875 7.90292969 -4.799375 8.61835938 -5.46875 9.35546875 C-5.9740625 9.89816406 -6.479375 10.44085938 -7 11 C-7.99 10.67 -8.98 10.34 -10 10 C-10 9.01 -10 8.02 -10 7 C-8.9171875 6.6596875 -8.9171875 6.6596875 -7.8125 6.3125 C-4.46790687 4.75168987 -2.48396041 2.6968713 0 0 Z " fill="#A2575B" transform="translate(69,18)"/>
<path d="M0 0 C1.98 0 3.96 0 6 0 C6 0.99 6 1.98 6 3 C3.64561267 4.42944945 2.51967567 5.08661261 -0.25 4.625 C-0.8275 4.41875 -1.405 4.2125 -2 4 C-1.34 2.68 -0.68 1.36 0 0 Z " fill="#B32D33" transform="translate(56,107)"/>
<path d="M0 0 C0.66 1.32 1.32 2.64 2 4 C0.75336669 4.50833591 -0.49749387 5.00631145 -1.75 5.5 C-2.44609375 5.7784375 -3.1421875 6.056875 -3.859375 6.34375 C-6 7 -6 7 -10 7 C-10 6.01 -10 5.02 -10 4 C-6.97265625 3.75585938 -6.97265625 3.75585938 -3.9453125 3.51171875 C-1.60480784 3.12606964 -1.60480784 3.12606964 0 0 Z " fill="#4696CA" transform="translate(91,95)"/>
<path d="M0 0 C0.33 1.98 0.66 3.96 1 6 C0.4225 5.773125 -0.155 5.54625 -0.75 5.3125 C-3.12172477 4.73494807 -3.12172477 4.73494807 -5.25 6.4375 C-6.11625 7.2109375 -6.11625 7.2109375 -7 8 C-6.44414399 4.1090079 -4.34122117 0 0 0 Z " fill="#487FA2" transform="translate(81,93)"/>
<path d="M0 0 C2.97 0.33 5.94 0.66 9 1 C8.01 1.495 8.01 1.495 7 2 C7 2.99 7 3.98 7 5 C4.36 4.34 1.72 3.68 -1 3 C-0.67 2.01 -0.34 1.02 0 0 Z " fill="#2478AF" transform="translate(78,12)"/>
<path d="M0 0 C0.33 0 0.66 0 1 0 C1 2.31 1 4.62 1 7 C-3.95 7 -8.9 7 -14 7 C-14 6.67 -14 6.34 -14 6 C-10.7 6 -7.4 6 -4 6 C-4 5.34 -4 4.68 -4 4 C-3.01 4 -2.02 4 -1 4 C-0.67 2.68 -0.34 1.36 0 0 Z " fill="#65A7CC" transform="translate(114,57)"/>
<path d="M0 0 C1.32 1.65 2.64 3.3 4 5 C2.1875 6.0625 2.1875 6.0625 0 7 C-0.99 6.67 -1.98 6.34 -3 6 C-2.625 3.5625 -2.625 3.5625 -2 1 C-1.34 0.67 -0.68 0.34 0 0 Z " fill="#7BA1BD" transform="translate(43,28)"/>
<path d="M0 0 C1 3 1 3 1 6 C-0.98 6 -2.96 6 -5 6 C-5 4.68 -5 3.36 -5 2 C-3.35 1.34 -1.7 0.68 0 0 Z " fill="#7CA6C0" transform="translate(43,87)"/>
<path d="M0 0 C1.79068573 2.6860286 2.66055791 4.6626589 3.625 7.6875 C3.88539062 8.49574219 4.14578125 9.30398437 4.4140625 10.13671875 C4.60742188 10.75160156 4.80078125 11.36648437 5 12 C4.34 12.66 3.68 13.32 3 14 C2.34 13.67 1.68 13.34 1 13 C1.020625 12.071875 1.04125 11.14375 1.0625 10.1875 C1.15769604 6.97713989 1.15769604 6.97713989 0 4 C0 2.68 0 1.36 0 0 Z " fill="#C52E37" transform="translate(26,73)"/>
<path d="M0 0 C0.66 0.33 1.32 0.66 2 1 C0.02 4.96 -1.96 8.92 -4 13 C-5 10 -5 10 -4.00390625 7.51953125 C-3.52824219 6.62621094 -3.05257812 5.73289062 -2.5625 4.8125 C-2.08941406 3.91144531 -1.61632812 3.01039062 -1.12890625 2.08203125 C-0.75636719 1.39496094 -0.38382812 0.70789063 0 0 Z " fill="#3578A0" transform="translate(119,80)"/>
<path d="M0 0 C2.31 0.33 4.62 0.66 7 1 C7 2.65 7 4.3 7 6 C4.0625 5.25 4.0625 5.25 1 4 C0.125 1.875 0.125 1.875 0 0 Z " fill="#68ADD0" transform="translate(72,70)"/>
<path d="M0 0 C3.79549259 0.54581199 5.30979295 2.05409295 7.75 4.9375 C8.67039062 6.00291016 8.67039062 6.00291016 9.609375 7.08984375 C11 9 11 9 11 11 C6.96546646 9.65515549 6.27680931 7.51870529 4 4 C2.70317626 2.63113049 1.38176866 1.2830709 0 0 Z " fill="#8ABED7" transform="translate(78,17)"/>
<path d="M0 0 C1.32 0.66 2.64 1.32 4 2 C3.67 3.65 3.34 5.3 3 7 C2.38125 7.144375 1.7625 7.28875 1.125 7.4375 C-1.03258322 7.93152225 -1.03258322 7.93152225 -3 9 C-2.5359375 7.88625 -2.5359375 7.88625 -2.0625 6.75 C-1.1905075 4.49307824 -0.52332993 2.3549847 0 0 Z " fill="#965F6D" transform="translate(73,9)"/>
<path d="M0 0 C1.62566606 0.47690204 3.25051311 0.95659666 4.875 1.4375 C5.77992187 1.70433594 6.68484375 1.97117187 7.6171875 2.24609375 C10 3 10 3 12 4 C12 4.66 12 5.32 12 6 C10.55903414 5.57405412 9.12231288 5.13373367 7.6875 4.6875 C6.88699219 4.44386719 6.08648437 4.20023437 5.26171875 3.94921875 C2.90035427 2.95817977 1.66120007 1.91925057 0 0 Z " fill="#B5464A" transform="translate(40,103)"/>
<path d="M0 0 C4.29 0 8.58 0 13 0 C13 0.33 13 0.66 13 1 C9.7 1.33 6.4 1.66 3 2 C3 2.99 3 3.98 3 5 C2.01 5 1.02 5 0 5 C0 3.35 0 1.7 0 0 Z " fill="#83A9C2" transform="translate(27,58)"/>
<path d="M0 0 C2.5625 2.1875 2.5625 2.1875 5 5 C4.8125 7.8125 4.8125 7.8125 4 10 C2.5 8.6875 2.5 8.6875 1 7 C1 6.01 1 5.02 1 4 C0.34 3.67 -0.32 3.34 -1 3 C-0.67 2.01 -0.34 1.02 0 0 Z " fill="#B92B36" transform="translate(34,90)"/>
<path d="M0 0 C3.3 0 6.6 0 10 0 C10 1.65 10 3.3 10 5 C9.67 4.34 9.34 3.68 9 3 C6.88153715 2.31270746 6.88153715 2.31270746 4.4375 1.875 C3.61121094 1.70742188 2.78492187 1.53984375 1.93359375 1.3671875 C1.29550781 1.24601562 0.65742187 1.12484375 0 1 C0 0.67 0 0.34 0 0 Z " fill="#73B0CF" transform="translate(104,58)"/>
<path d="M0 0 C-0.54723683 3.37462715 -1.0549 5.08235 -3 8 C-3 6.35 -3 4.7 -3 3 C-4.32 3.33 -5.64 3.66 -7 4 C-3.375 0 -3.375 0 0 0 Z " fill="#61809A" transform="translate(54,24)"/>
<path d="M0 0 C1.65 0 3.3 0 5 0 C4.01 0.33 3.02 0.66 2 1 C2 2.65 2 4.3 2 6 C0.35 6.66 -1.3 7.32 -3 8 C-3 7.34 -3 6.68 -3 6 C-2.34 5.67 -1.68 5.34 -1 5 C-0.34444881 2.47266765 -0.34444881 2.47266765 0 0 Z " fill="#B05257" transform="translate(53,3)"/>
<path d="M0 0 C-1.29299694 2.88437779 -2.65941363 4.87219421 -5 7 C-5.33 5.35 -5.66 3.7 -6 2 C-3 0 -3 0 0 0 Z " fill="#3178B4" transform="translate(74,101)"/>
<path d="M0 0 C0.33 0.66 0.66 1.32 1 2 C-3.455 2.495 -3.455 2.495 -8 3 C-8 2.01 -8 1.02 -8 0 C-4.69693408 -1.10102197 -3.28414305 -0.95067299 0 0 Z " fill="#6DB2C4" transform="translate(60,87)"/>
<path d="M0 0 C0.66 0.99 1.32 1.98 2 3 C0.02 5.31 -1.96 7.62 -4 10 C-4 5.75354935 -2.18249194 3.61475228 0 0 Z " fill="#C03036" transform="translate(26,31)"/>
<path d="M0 0 C0.33 1.98 0.66 3.96 1 6 C0.34 6 -0.32 6 -1 6 C-1 5.01 -1 4.02 -1 3 C-3.97 2.505 -3.97 2.505 -7 2 C-4.35261084 0.5393715 -3.10551666 0 0 0 Z " fill="#B23F46" transform="translate(59,19)"/>
<path d="M0 0 C1.98 0 3.96 0 6 0 C6.33 1.65 6.66 3.3 7 5 C5.35 5.33 3.7 5.66 2 6 C2.33 5.34 2.66 4.68 3 4 C3.66 4 4.32 4 5 4 C5 3.01 5 2.02 5 1 C3.35 1 1.7 1 0 1 C0 0.67 0 0.34 0 0 Z " fill="#A4515D" transform="translate(57,106)"/>
<path d="M0 0 C1.12894876 0.93274109 2.25300876 1.87140122 3.375 2.8125 C4.00148438 3.33457031 4.62796875 3.85664062 5.2734375 4.39453125 C7 6 7 6 9 9 C5.55862568 7.4705003 2.7777867 5.54630448 0 3 C0 2.01 0 1.02 0 0 Z " fill="#B8474B" transform="translate(31,94)"/>
<path d="M0 0 C4.62 0 9.24 0 14 0 C12.515 1.485 12.515 1.485 11 3 C8.30078125 2.85546875 8.30078125 2.85546875 5.3125 2.1875 C4.31863281 1.97480469 3.32476562 1.76210938 2.30078125 1.54296875 C1.54152344 1.36378906 0.78226563 1.18460938 0 1 C0 0.67 0 0.34 0 0 Z " fill="#81C0DC" transform="translate(55,34)"/>
<path d="M0 0 C2.02054804 1.64169528 4.02043058 3.30911778 6 5 C6 5.33 6 5.66 6 6 C4.02 6 2.04 6 0 6 C-0.33 5.34 -0.66 4.68 -1 4 C-0.34 3.67 0.32 3.34 1 3 C0.67 2.01 0.34 1.02 0 0 Z " fill="#8498AF" transform="translate(57,100)"/>
<path d="M0 0 C-0.33 0.99 -0.66 1.98 -1 3 C-4.3 2.67 -7.6 2.34 -11 2 C-6.78370866 -0.10814567 -4.60209225 -0.17700355 0 0 Z " fill="#7FB8CF" transform="translate(86,33)"/>
<path d="M0 0 C0.33 0.99 0.66 1.98 1 3 C0.67 3.66 0.34 4.32 0 5 C0.99 5 1.98 5 3 5 C3 5.66 3 6.32 3 7 C0.69 7 -1.62 7 -4 7 C-3.525625 6.21625 -3.05125 5.4325 -2.5625 4.625 C-1.66101977 3.11051322 -0.78820515 1.5764103 0 0 Z " fill="#7CBDDD" transform="translate(45,85)"/>
<path d="M0 0 C2.97 0.33 5.94 0.66 9 1 C9 1.33 9 1.66 9 2 C6.36 2.33 3.72 2.66 1 3 C0.67 2.01 0.34 1.02 0 0 Z " fill="#7EBCDF" transform="translate(99,58)"/>
<path d="M0 0 C0.66 0.33 1.32 0.66 2 1 C0.68 3.64 -0.64 6.28 -2 9 C-3 5 -3 5 -1.5625 2.25 C-1.046875 1.5075 -0.53125 0.765 0 0 Z " fill="#C96768" transform="translate(32,38)"/>
<path d="M0 0 C0.66 0 1.32 0 2 0 C2.33 1.32 2.66 2.64 3 4 C2.01 4 1.02 4 0 4 C0 4.66 0 5.32 0 6 C-0.99 5.67 -1.98 5.34 -3 5 C-1.625 2.5 -1.625 2.5 0 0 Z " fill="#68B0D5" transform="translate(100,27)"/>
</svg>
